<svg width="104" height="121" viewBox="0 0 104 121" fill="none" xmlns="http://www.w3.org/2000/svg">
<path d="M73.867 70.2148H29.3262V108.55H73.867V70.2148Z" fill="#009EFF"/>
<path d="M73.8676 109.208H29.3264C28.958 109.208 28.6597 108.914 28.6597 108.55V70.2152C28.6597 69.8516 28.9584 69.5571 29.3264 69.5571H73.8672C74.2356 69.5571 74.5339 69.8516 74.5339 70.2152V108.55C74.5339 108.914 74.2351 109.208 73.8672 109.208H73.8676ZM29.9935 107.892H73.2009V70.8734H29.9931V107.892H29.9935Z" fill="#000072"/>
<path d="M57.8736 100.506L51.5964 106.702L45.3208 100.506L49.0495 81.7647L49.6062 78.9677C50.0362 76.8124 53.1582 76.8124 53.5882 78.9677L54.145 81.7647L57.8736 100.506Z" fill="#F43F08"/>
<path d="M51.5973 107.36C51.4269 107.36 51.2561 107.296 51.126 107.167L44.8488 100.971C44.6917 100.816 44.6229 100.594 44.6659 100.379L48.9525 78.841C49.2475 77.3574 50.4935 76.6935 51.5973 76.6935C52.7012 76.6935 53.9467 77.3574 54.2422 78.841L58.5288 100.379C58.5717 100.594 58.503 100.816 58.3459 100.971L52.0691 107.167C51.939 107.295 51.7682 107.36 51.5978 107.36H51.5973ZM46.0431 100.289L51.5973 105.771L57.1516 100.289L52.9337 79.0948C52.7745 78.294 52.1141 78.0098 51.5973 78.0098C51.0806 78.0098 50.4206 78.294 50.261 79.0948L46.0427 100.289H46.0431Z" fill="#000072"/>
<path d="M47.2393 78.0744L49.9091 79.818C50.9329 80.4868 52.2622 80.4868 53.2861 79.818L55.9559 78.0744L51.5976 71.856L47.2393 78.0744Z" fill="white"/>
<path d="M51.5971 80.4234C50.9892 80.4234 50.3816 80.2502 49.8512 79.9039L47.1813 78.1603C47.158 78.1451 47.1417 78.1212 47.1367 78.0941C47.1313 78.0669 47.1372 78.039 47.1534 78.0163L51.5117 71.798C51.5505 71.7421 51.6442 71.7421 51.683 71.798L56.0413 78.0163C56.0571 78.039 56.0634 78.0673 56.058 78.0941C56.0526 78.1212 56.0367 78.1451 56.0134 78.1603L53.3436 79.9039C52.8131 80.2502 52.2055 80.4234 51.5976 80.4234H51.5971ZM47.3851 78.0464L49.9662 79.7324C50.9571 80.3798 52.2376 80.3794 53.2281 79.7324L55.8092 78.0464L51.5971 72.037L47.3851 78.0464Z" fill="#000072"/>
<g opacity="0.3">
<path d="M47.2393 79.8233L49.9091 81.5669C50.9329 82.2357 52.2622 82.2357 53.2861 81.5669L55.9559 79.8233L51.5976 73.605L47.2393 79.8233Z" fill="#293856"/>
</g>
<path d="M47.2393 78.0744L49.9091 79.818C50.9329 80.4868 52.2622 80.4868 53.2861 79.818L55.9559 78.0744L51.5976 71.856L47.2393 78.0744Z" fill="#F43F08"/>
<path d="M51.5969 80.9787C50.881 80.9787 50.1651 80.7747 49.5405 80.367L46.8707 78.6235C46.7211 78.526 46.6177 78.373 46.584 78.199C46.5498 78.0254 46.5881 77.8456 46.6902 77.7L51.0485 71.4817C51.1731 71.304 51.3782 71.1979 51.5969 71.1979C51.8157 71.1979 52.0207 71.304 52.1453 71.4817L56.5036 77.7C56.6057 77.8456 56.6441 78.0254 56.6099 78.199C56.5757 78.3725 56.4728 78.5256 56.3232 78.623L53.6534 80.3666C53.0287 80.7747 52.3128 80.9783 51.5969 80.9783V80.9787ZM48.1741 77.8962L50.276 79.2692C51.0786 79.7928 52.1149 79.7933 52.9175 79.2692L55.0193 77.8962L51.5965 73.0126L48.1737 77.8962H48.1741Z" fill="#000072"/>
<path d="M51.5966 73.6814L50.5381 75.1392L46.5628 80.6081L42.3841 74.1043L39.8855 70.2148L37.3086 66.2053L40.8106 66.6133L46.3061 70.2148L51.5966 73.6814Z" fill="#009EFF"/>
<path d="M65.8863 66.2053L63.3094 70.2148L60.8109 74.1043L56.6305 80.6081L52.6551 75.1392L51.5967 73.6814L56.8872 70.2148L62.3843 66.6133L65.8863 66.2053Z" fill="#009EFF"/>
<path d="M51.5966 73.6814L50.5381 75.1392L46.5628 80.6081L42.3841 74.1043L39.8855 70.2148L37.3086 66.2053L40.8106 66.6133L46.3061 70.2148L51.5966 73.6814Z" fill="white"/>
<path d="M65.8863 66.2053L63.3094 70.2148L60.8109 74.1043L56.6305 80.6081L52.6551 75.1392L51.5967 73.6814L56.8872 70.2148L62.3843 66.6133L65.8863 66.2053Z" fill="white"/>
<path d="M46.5634 81.2662C46.5571 81.2662 46.5509 81.2662 46.5442 81.2662C46.3229 81.2601 46.1187 81.1457 46.0004 80.961L36.7454 66.5582C36.6074 66.3439 36.607 66.07 36.7441 65.8553C36.8812 65.6406 37.1321 65.5237 37.3867 65.5521L40.8891 65.9606C40.9928 65.9725 41.0924 66.0087 41.1795 66.0659L51.9664 73.1336C52.1172 73.2323 52.221 73.3874 52.2535 73.563C52.286 73.7386 52.2451 73.92 52.1393 74.0652L47.1055 80.9923C46.9801 81.1646 46.7784 81.2666 46.5638 81.2666L46.5634 81.2662ZM38.6218 67.0209L46.5971 79.4321L50.6521 73.8522L40.5736 67.2488L38.6214 67.0214L38.6218 67.0209Z" fill="#000072"/>
<path d="M56.6307 81.2662C56.4165 81.2662 56.2144 81.1642 56.089 80.9919L51.0552 74.0648C50.9498 73.9196 50.9085 73.7382 50.941 73.5626C50.9735 73.387 51.0773 73.2319 51.2281 73.1332L62.015 66.0655C62.1021 66.0083 62.2016 65.9721 62.3054 65.9602L65.8078 65.5517C66.062 65.5225 66.3133 65.6397 66.4504 65.8549C66.5875 66.0696 66.5871 66.3435 66.4491 66.5578L57.1941 80.9606C57.0753 81.1453 56.8716 81.2596 56.6503 81.2658C56.6441 81.2658 56.6374 81.2658 56.6311 81.2658L56.6307 81.2662ZM52.542 73.8522L56.597 79.4322L64.5723 67.021L62.62 67.2484L52.5416 73.8518L52.542 73.8522Z" fill="#000072"/>
<path d="M51.5968 73.6811L60.0122 68.1673L43.6836 68.4959" fill="#FFCFAE"/>
<path d="M51.5972 74.3392C51.4689 74.3392 51.3401 74.3026 51.2284 74.2294L43.3148 69.0447C43.0718 68.8855 42.9618 68.5893 43.0431 68.3129C43.1243 68.0365 43.3781 67.8444 43.6698 67.8387L59.9988 67.5096C60.2963 67.4985 60.5601 67.6914 60.6489 67.9711C60.7372 68.2504 60.6285 68.554 60.3814 68.716L51.966 74.2298C51.8543 74.303 51.726 74.3396 51.5972 74.3396V74.3392ZM45.8279 69.1113L51.5972 72.8913L57.7324 68.8715L45.8283 69.1113H45.8279Z" fill="#000072"/>
<path d="M30.0415 57.1895C33.88 57.1895 36.9918 54.118 36.9918 50.3291C36.9918 46.5402 33.88 43.4687 30.0415 43.4687C26.203 43.4687 23.0913 46.5402 23.0913 50.3291C23.0913 54.118 26.203 57.1895 30.0415 57.1895Z" fill="#FFCFAE"/>
<g opacity="0.3">
<path d="M36.9919 50.33C36.9919 54.119 33.88 57.1891 30.0413 57.1891C26.2026 57.1891 23.0923 54.119 23.0923 50.33C23.0923 49.6225 23.2006 48.9397 23.4023 48.298C24.2774 51.0967 26.9193 53.1286 30.0413 53.1286C33.1632 53.1286 35.8051 51.0967 36.6819 48.298C36.8836 48.9397 36.9919 49.6225 36.9919 50.33Z" fill="#000072"/>
</g>
<path d="M73.1524 57.1895C76.9909 57.1895 80.1026 54.118 80.1026 50.3291C80.1026 46.5402 76.9909 43.4687 73.1524 43.4687C69.3139 43.4687 66.2021 46.5402 66.2021 50.3291C66.2021 54.118 69.3139 57.1895 73.1524 57.1895Z" fill="#FFCFAE"/>
<g opacity="0.3">
<path d="M80.1027 50.33C80.1027 54.119 76.9908 57.1891 73.1521 57.1891C69.3134 57.1891 66.2031 54.119 66.2031 50.33C66.2031 49.6225 66.3115 48.9397 66.5132 48.298C67.3882 51.0967 70.0301 53.1286 73.1521 53.1286C76.2741 53.1286 78.916 51.0967 79.7927 48.298C79.9944 48.9397 80.1027 49.6225 80.1027 50.33Z" fill="#000072"/>
</g>
<path d="M30.0417 57.8481C25.8417 57.8481 22.4243 54.4753 22.4243 50.3296C22.4243 46.1838 25.8413 42.8106 30.0417 42.8106C34.2421 42.8106 37.6591 46.1834 37.6591 50.3296C37.6591 54.4757 34.2421 57.8481 30.0417 57.8481ZM30.0417 44.1268C26.5768 44.1268 23.7582 46.909 23.7582 50.3291C23.7582 53.7493 26.5768 56.5314 30.0417 56.5314C33.5066 56.5314 36.3252 53.7493 36.3252 50.3291C36.3252 46.909 33.5066 44.1268 30.0417 44.1268Z" fill="#000072"/>
<path d="M73.1525 57.8481C68.9526 57.8481 65.5352 54.4753 65.5352 50.3296C65.5352 46.1838 68.9521 42.8106 73.1525 42.8106C77.3529 42.8106 80.7695 46.1834 80.7695 50.3296C80.7695 54.4757 77.3525 57.8481 73.1525 57.8481ZM73.1525 44.1268C69.6876 44.1268 66.869 46.909 66.869 50.3291C66.869 53.7493 69.6876 56.5314 73.1525 56.5314C76.6174 56.5314 79.436 53.7493 79.436 50.3291C79.436 46.909 76.6174 44.1268 73.1525 44.1268Z" fill="#000072"/>
<g opacity="0.3">
<path d="M68.8214 70.2148C66.7296 72.0197 63.9827 73.2997 60.8107 74.1043C58.3171 74.7361 55.5619 75.0733 52.6549 75.1392C52.3049 75.1474 51.9515 75.1507 51.5965 75.1507C51.2415 75.1507 50.8881 75.1474 50.5381 75.1392C47.6311 75.0733 44.8759 74.7361 42.384 74.1043C39.2104 73.3014 36.4634 72.0197 34.3716 70.2148H39.8854L37.3085 66.2053L40.8105 66.6133L46.306 70.2148H56.887L62.3842 66.6133L65.8862 66.2053L63.3093 70.2148H68.8214Z" fill="#000072"/>
</g>
<path d="M73.1522 55.4916C73.1522 65.8042 63.5013 70.2152 51.5968 70.2152C39.6924 70.2152 30.0415 65.8042 30.0415 55.4916C30.0415 53.0529 31.5204 45.0905 32.4342 40.4027C33.1068 36.9534 34.5832 33.6953 36.8109 30.9559C38.5552 28.8109 40.7917 26.9044 43.2298 26.9044H59.9643C62.4024 26.9044 64.6389 28.8109 66.3832 30.9559C68.6109 33.6949 70.0873 36.9534 70.7599 40.4027C71.6737 45.0905 73.1526 53.0529 73.1526 55.4916H73.1522Z" fill="#FFCFAE"/>
<g opacity="0.3">
<path d="M73.1517 55.4912C73.1517 65.8038 63.5008 70.2148 51.5963 70.2148C39.6919 70.2148 30.041 65.8038 30.041 55.4912C30.041 55.0289 30.0944 54.3658 30.1877 53.5646C31.4378 62.3586 40.547 66.1592 51.5963 66.1592C62.6457 66.1592 71.7549 62.3586 73.005 53.5646C73.0983 54.3658 73.1517 55.0289 73.1517 55.4912Z" fill="#000072"/>
</g>
<g opacity="0.3">
<path d="M71.6672 45.1971C68.5219 48.7542 60.7212 50.3287 51.597 50.3287C42.4729 50.3287 34.6721 48.7542 31.5269 45.1971C31.8436 43.4629 32.1636 41.7897 32.4336 40.4027C33.107 36.9542 34.5838 33.6949 36.8107 30.9555C38.5558 28.8117 40.791 26.9048 43.2296 26.9048H59.9645C62.403 26.9048 64.6382 28.8117 66.3834 30.9555C68.6103 33.6949 70.0871 36.9542 70.7605 40.4027C71.0305 41.7897 71.3505 43.4629 71.6672 45.1971Z" fill="#000072"/>
</g>
<path d="M42.9863 69.9717C42.9358 69.9717 42.885 69.966 42.8346 69.9545C34.155 67.9526 29.375 62.8164 29.375 55.4916C29.375 54.7599 29.495 53.5666 29.7417 51.844C30.2351 48.3889 31.1218 43.6476 31.779 40.2781C32.4824 36.6749 34.0425 33.3091 36.2906 30.5433C38.6117 27.6921 40.9465 26.2463 43.2296 26.2463H59.9645C62.2476 26.2463 64.5824 27.6921 66.9031 30.5429C69.1512 33.3087 70.7113 36.6749 71.4151 40.2777C72.0723 43.6472 72.959 48.3885 73.4524 51.844C73.6991 53.567 73.8191 54.7603 73.8191 55.4916C73.8191 62.8164 69.0391 67.9526 60.3595 69.9545C60.1562 70.0018 59.9416 69.9516 59.7811 69.8191C59.6207 69.6871 59.532 69.488 59.542 69.282C59.5549 69.0204 59.5611 68.7522 59.5611 68.4848C59.5611 61.9419 55.9887 56.619 51.5971 56.619C47.2054 56.619 43.633 61.9419 43.633 68.4848C43.633 68.7505 43.6392 69.0187 43.6522 69.2824C43.6622 69.4884 43.5738 69.6875 43.413 69.8195C43.2917 69.9191 43.1404 69.9722 42.9863 69.9722V69.9717ZM51.5971 55.3024C56.7192 55.3024 60.8875 61.2061 60.8946 68.4659C66.3709 67.025 72.4857 63.5996 72.4857 55.4916C72.4857 54.8323 72.3669 53.6666 72.1323 52.0283C71.6427 48.5999 70.7601 43.8817 70.1059 40.5273C69.4433 37.1339 67.9761 33.9668 65.8634 31.3676C63.8086 28.8434 61.8238 27.5633 59.9645 27.5633H43.2296C41.3703 27.5633 39.3855 28.8434 37.3303 31.368C35.2176 33.9668 33.7508 37.1343 33.0883 40.5277C32.434 43.8821 31.5515 48.6003 31.0618 52.0287C30.8272 53.667 30.7085 54.8323 30.7085 55.4924C30.7085 63.6004 36.8228 67.0259 42.2995 68.4667C42.3066 61.2065 46.4749 55.3032 51.5971 55.3032V55.3024Z" fill="#000072"/>
<path d="M42.8041 52.6909C44.8878 52.6909 46.5769 50.2586 46.5769 47.2582C46.5769 44.2578 44.8878 41.8255 42.8041 41.8255C40.7204 41.8255 39.0312 44.2578 39.0312 47.2582C39.0312 50.2586 40.7204 52.6909 42.8041 52.6909Z" fill="white"/>
<path d="M42.8043 52.7942C40.6666 52.7942 38.9272 50.311 38.9272 47.2586C38.9272 44.2062 40.6666 41.7231 42.8043 41.7231C44.942 41.7231 46.6813 44.2062 46.6813 47.2586C46.6813 50.311 44.942 52.7942 42.8043 52.7942ZM42.8043 41.9283C40.7812 41.9283 39.1356 44.3193 39.1356 47.2582C39.1356 50.1971 40.7812 52.5881 42.8043 52.5881C44.8274 52.5881 46.4729 50.1971 46.4729 47.2582C46.4729 44.3193 44.8274 41.9283 42.8043 41.9283Z" fill="#000072"/>
<path d="M42.8038 53.3495C40.3557 53.3495 38.3643 50.617 38.3643 47.2582C38.3643 43.8994 40.3561 41.1674 42.8038 41.1674C45.2516 41.1674 47.2434 43.8998 47.2434 47.2582C47.2434 50.6166 45.2516 53.3495 42.8038 53.3495ZM42.8038 42.4836C41.1199 42.4836 39.6977 44.6702 39.6977 47.2582C39.6977 49.8462 41.1203 52.0328 42.8038 52.0328C44.4873 52.0328 45.91 49.8462 45.91 47.2582C45.91 44.6702 44.4873 42.4836 42.8038 42.4836Z" fill="#000072"/>
<path d="M60.3344 52.6909C62.4181 52.6909 64.1072 50.2586 64.1072 47.2582C64.1072 44.2578 62.4181 41.8255 60.3344 41.8255C58.2507 41.8255 56.5615 44.2578 56.5615 47.2582C56.5615 50.2586 58.2507 52.6909 60.3344 52.6909Z" fill="white"/>
<path d="M60.3345 52.7942C58.1968 52.7942 56.4575 50.311 56.4575 47.2586C56.4575 44.2062 58.1968 41.7231 60.3345 41.7231C62.4722 41.7231 64.2116 44.2062 64.2116 47.2586C64.2116 50.311 62.4722 52.7942 60.3345 52.7942ZM60.3345 41.9283C58.3114 41.9283 56.6659 44.3193 56.6659 47.2582C56.6659 50.1971 58.3114 52.5881 60.3345 52.5881C62.3577 52.5881 64.0032 50.1971 64.0032 47.2582C64.0032 44.3193 62.3577 41.9283 60.3345 41.9283Z" fill="#000072"/>
<path d="M60.3346 53.3495C57.8865 53.3495 55.895 50.617 55.895 47.2582C55.895 43.8994 57.8869 41.1674 60.3346 41.1674C62.7823 41.1674 64.7742 43.8998 64.7742 47.2582C64.7742 50.6166 62.7823 53.3495 60.3346 53.3495ZM60.3346 42.4836C58.6507 42.4836 57.2285 44.6702 57.2285 47.2582C57.2285 49.8462 58.6511 52.0328 60.3346 52.0328C62.0181 52.0328 63.4407 49.8462 63.4407 47.2582C63.4407 44.6702 62.0185 42.4836 60.3346 42.4836Z" fill="#000072"/>
<path d="M87.2669 31.3339C85.41 33.1915 83.2232 35.5376 76.0542 37.048C75.6375 45.5015 72.7922 51.9362 72.7922 51.9362C72.2971 48.4696 71.3937 43.6505 70.7603 40.4027C70.697 40.0802 70.627 39.7594 70.5503 39.4402V39.4386C68.0551 32.127 62.5329 31.5133 62.5329 31.5133C64.5398 33.9466 64.1631 36.6943 64.1631 36.6943C59.2209 32.1171 52.1886 34.8055 45.9197 34.7824C41.5493 34.7676 38.9457 32.1385 37.5723 30.0736C37.3089 30.3599 37.0539 30.6544 36.8105 30.9555C34.5836 33.6949 33.1068 36.9542 32.4334 40.4027C31.8001 43.6505 30.8966 48.4696 30.4016 51.9362C30.4016 51.9362 27.293 44.9075 27.0996 35.8914C27.0996 35.8914 20.544 36.867 17.0887 30.0555C16.827 29.5406 17.3104 28.9614 17.8704 29.126C17.9359 29.1453 18.0034 29.1646 18.0725 29.184C22.6013 30.4529 27.3092 28.0121 28.9752 23.6657C29.0298 23.5238 29.0852 23.3831 29.1415 23.2441C29.1415 23.2441 29.1481 23.2276 29.1598 23.1964C29.4098 22.5547 31.9917 15.4931 25.7245 12.3786C25.1978 12.117 25.2344 11.3651 25.7878 11.1677C28.2443 10.2916 33.1239 9.25504 35.6442 13.5698C35.9321 14.063 36.5742 14.2267 37.0568 13.9145C37.0626 13.9108 43.0599 10.9143 45.0475 7.51927C46.4339 5.15047 46.5981 3.13418 46.476 1.48602C46.4289 0.851758 46.8648 0.51283 47.4744 0.716023C48.417 1.03027 52.3636 3.76761 51.0843 9.88354C51.0131 10.2241 51.3327 10.5178 51.6727 10.4285C53.9617 9.82637 60.9407 7.68627 65.8965 2.91165C66.2933 2.5283 66.96 2.75864 67.025 3.30323C67.2613 5.27593 67.1358 9.09134 63.4159 11.8279C63.1105 12.0524 63.158 12.5172 63.5063 12.6698C63.8493 12.82 64.2939 13.0046 64.8198 13.2013C68.0051 14.3924 74.1823 16.0114 78.9044 13.0367C79.4195 12.711 80.0712 13.1881 79.9028 13.7689C79.2415 16.0653 77.5968 19.8885 73.8098 21.1192C73.4731 21.2286 73.311 21.6025 73.4643 21.918C73.6464 22.2939 73.821 22.6822 73.9873 23.0837C75.99 27.9167 81.0129 30.8971 86.2651 30.2748C86.4097 30.2575 86.556 30.239 86.7035 30.2184C87.3352 30.1312 87.7152 30.8864 87.2669 31.3339Z" fill="#94452F"/>
<g opacity="0.3">
<path d="M64.1629 36.2825C59.2208 31.7053 52.1885 34.3937 45.9196 34.3707C41.7108 34.3559 39.1406 31.9176 37.7305 29.8939C38.5022 30.3661 42.3309 33.4185 47.7376 32.4461C53.2598 31.4532 56.7672 31.0649 58.972 30.9448C61.9052 30.7856 64.3517 33.1725 64.1812 36.0674C64.1729 36.206 64.1625 36.2821 64.1625 36.2821L64.1629 36.2825Z" fill="#000072"/>
</g>
<g opacity="0.3">
<path d="M36.9003 30.8465C36.8703 30.8827 36.8403 30.9189 36.8103 30.9551C34.5834 33.6945 33.1066 36.9538 32.4332 40.4023C31.7998 43.6501 30.8964 48.4691 30.4013 51.9357C30.4013 51.9357 27.3744 45.0914 27.1094 36.2463C32.3515 37.0805 36.7503 30.5438 36.7503 30.5438L36.9003 30.8465Z" fill="#000072"/>
</g>
<g opacity="0.3">
<path d="M65.1802 32.4807C65.2102 32.5169 65.7227 32.804 65.7598 32.8332C68.0517 34.6557 69.996 36.9538 70.6694 40.4023C71.3028 43.6501 72.2062 48.4691 72.7013 51.9357C72.7013 51.9357 75.7895 45.893 76.0545 37.048C73.1526 38.1265 66.7328 32.7316 66.7328 32.7316L65.1802 32.4803V32.4807Z" fill="#000072"/>
</g>
<g opacity="0.5">
<path d="M29.8494 20.1588C30.0977 22.5954 29.2927 24.7836 29.1593 25.1275C29.1477 25.1588 29.141 25.1752 29.141 25.1752C29.086 25.3151 29.0293 25.4549 28.976 25.5981C27.3091 29.9433 22.602 32.3849 18.0733 31.1147C18.0033 31.0966 17.9366 31.0769 17.8699 31.0571C17.7899 31.0341 17.7116 31.0258 17.6366 31.0308C17.4466 30.7248 17.2632 30.4006 17.0882 30.0551C16.8265 29.5402 17.3099 28.961 17.8699 29.1255C17.9366 29.1453 18.0033 29.165 18.0733 29.1848C22.602 30.4533 27.3091 28.0117 28.976 23.6665C29.0293 23.5234 29.086 23.3835 29.141 23.2437C29.141 23.2437 29.1477 23.2272 29.1593 23.1959C29.256 22.9475 29.7044 21.7333 29.8494 20.1588Z" fill="white"/>
</g>
<g opacity="0.5">
<path d="M51.2884 8.53809C50.9017 4.698 48.2281 2.8997 47.4747 2.64797C46.8646 2.44396 46.4296 2.78289 46.4763 3.41797C46.5979 5.06654 46.4346 7.08201 45.0478 9.45122C43.0609 12.8471 37.0637 15.8431 37.057 15.8464C36.5753 16.159 35.9336 15.9945 35.6453 15.5009C33.3667 11.6016 29.1613 12.0738 26.5594 12.8487C26.3011 12.6842 26.0227 12.5263 25.7243 12.3782C25.1976 12.1166 25.2343 11.3647 25.7877 11.1673C28.2446 10.292 33.125 9.25543 35.6453 13.5694C35.9336 14.063 36.5753 14.2275 37.057 13.9149C37.0637 13.9116 43.0609 10.9155 45.0478 7.51966C46.4346 5.15045 46.5979 3.13498 46.4763 1.4864C46.4296 0.851325 46.8646 0.512397 47.4747 0.716412C48.3464 1.00598 51.7767 3.36367 51.2884 8.53809Z" fill="white"/>
</g>
<g opacity="0.5">
<path d="M65.8962 4.84281C60.9408 9.61742 53.9618 11.7579 51.6732 12.3601C51.3332 12.449 51.0132 12.1561 51.0848 11.8155C51.1899 11.3121 51.2599 10.8316 51.2982 10.3742C51.4049 10.4401 51.5366 10.4647 51.6732 10.4285C53.9618 9.82637 60.9408 7.6875 65.8962 2.91124C66.2929 2.52789 66.9597 2.75823 67.0247 3.30282C67.0947 3.89348 67.1347 4.64702 67.053 5.4894C67.0447 5.4022 67.0347 5.31665 67.0247 5.23438C66.9597 4.68979 66.2929 4.45946 65.8962 4.84281Z" fill="white"/>
</g>
<g opacity="0.5">
<path d="M78.904 14.9679C74.1819 17.9425 68.0046 16.3236 64.8193 15.1324C64.2943 14.9366 63.8492 14.7523 63.5075 14.601C63.1592 14.4496 63.1108 13.984 63.4159 13.7586C63.7459 13.5167 64.0459 13.265 64.3209 13.01C64.4776 13.0709 64.6443 13.135 64.8193 13.2008C68.0046 14.392 74.1819 16.011 78.904 13.0363C79.419 12.7105 80.0707 13.1877 79.9024 13.7685C79.8007 14.1205 79.6774 14.5088 79.524 14.9185C79.3357 14.8362 79.109 14.8379 78.904 14.9679Z" fill="white"/>
</g>
<g opacity="0.5">
<path d="M87.2667 31.3335C86.99 31.6099 86.7083 31.8962 86.4016 32.1891C86.3566 32.1956 86.3116 32.2006 86.2666 32.2055C81.0144 32.8291 75.9906 29.8478 73.9871 25.0156C73.8221 24.6142 73.6471 24.2259 73.4654 23.8491C73.3121 23.5332 73.4737 23.1597 73.8104 23.0512C73.8588 23.0364 73.9055 23.0199 73.9538 23.0034C73.9655 23.0298 73.9755 23.0577 73.9871 23.0841C75.9906 27.9163 81.0144 30.8975 86.2666 30.2756C86.4099 30.2575 86.5566 30.2394 86.7033 30.218C87.335 30.1308 87.7151 30.886 87.2667 31.3335Z" fill="white"/>
</g>
<g opacity="0.35">
<path d="M51.2878 8.53809C51.3478 9.10571 51.3545 9.71611 51.2978 10.3742C51.1395 10.2755 51.0411 10.0879 51.0845 9.88393C51.1828 9.41502 51.2495 8.96586 51.2878 8.53809Z" fill="white"/>
<path d="M51.2981 10.4771C51.2785 10.4771 51.2593 10.4717 51.2422 10.461C51.0347 10.3315 50.933 10.097 50.9826 9.86255C51.0776 9.40968 51.1455 8.96093 51.1843 8.52863C51.1889 8.47598 51.2335 8.43526 51.2872 8.43485C51.3435 8.4295 51.386 8.47434 51.3914 8.52699C51.4535 9.11477 51.4568 9.73915 51.4014 10.3825C51.3985 10.4182 51.3764 10.4499 51.3439 10.466C51.3293 10.4734 51.3135 10.4766 51.2976 10.4766L51.2981 10.4771ZM51.2306 9.68568C51.2168 9.75848 51.2018 9.8317 51.1868 9.9045C51.1701 9.98224 51.1801 10.06 51.2122 10.1287C51.2218 9.97977 51.2281 9.83211 51.231 9.68568H51.2306Z" fill="#000072"/>
</g>
<path d="M72.7928 52.5943C72.7628 52.5943 72.7324 52.5922 72.7024 52.5881C72.407 52.5482 72.174 52.3195 72.1324 52.0279C71.6427 48.5995 70.7602 43.8813 70.1059 40.5269C70.0459 40.223 69.9792 39.9161 69.9076 39.6159C68.3841 35.1802 65.7426 33.3695 64.0462 32.6411C65.0825 34.7573 64.8375 36.6823 64.8238 36.7823C64.7904 37.0266 64.6217 37.2318 64.3862 37.3141C64.1508 37.3968 63.8887 37.3425 63.707 37.1738C60.3329 34.049 55.9059 34.5373 51.2192 35.0543C49.4694 35.2472 47.6593 35.45 45.917 35.4405C41.7708 35.4266 39.1118 33.2346 37.5171 31.1402C37.4541 31.2155 37.3921 31.2907 37.3316 31.3656C35.2177 33.9664 33.7505 37.1335 33.0879 40.5269C32.4337 43.8813 31.5511 48.5995 31.0615 52.0279C31.0198 52.3195 30.7873 52.5482 30.4914 52.5881C30.1968 52.6288 29.9097 52.4692 29.7901 52.1994C29.6643 51.9148 26.7782 45.2962 26.4527 36.5885C24.5459 36.6173 19.4196 36.1217 16.4922 30.35C16.253 29.8791 16.3197 29.3139 16.6626 28.91C17.0085 28.5024 17.5436 28.3432 18.0603 28.495C18.1228 28.5131 18.1878 28.532 18.2545 28.5505C22.4423 29.7236 26.7832 27.5238 28.3512 23.4324C28.4075 23.2864 28.4641 23.1416 28.5225 22.9985L28.5337 22.9685C28.8192 22.2355 31.1294 15.8012 25.4243 12.9664C24.9434 12.7274 24.6534 12.2318 24.6855 11.7032C24.7175 11.1722 25.053 10.7296 25.561 10.5486C30.341 8.8433 34.2263 9.82512 36.2215 13.2411C36.2882 13.3555 36.389 13.3942 36.4432 13.4069C36.5041 13.4213 36.5966 13.4254 36.6912 13.3641C36.7107 13.3514 36.737 13.3366 36.7578 13.3263C36.997 13.2049 42.6375 10.3199 44.4698 7.1902C45.8699 4.79796 45.9058 2.81663 45.8108 1.53413C45.7716 1.00641 45.9583 0.543669 46.3229 0.264794C46.6858 -0.0128478 47.183 -0.0753685 47.6876 0.0924504C48.806 0.465518 52.9827 3.33695 51.7971 9.71283C54.1461 9.06706 60.7613 6.9393 65.4309 2.44027C65.7972 2.08653 66.3256 1.97054 66.8085 2.13877C67.2907 2.30659 67.6274 2.72326 67.6874 3.22589C67.9403 5.33967 67.7915 9.27642 64.0433 12.1824C64.3687 12.3202 64.7083 12.4555 65.0563 12.5851C68.1791 13.7528 74.0838 15.292 78.5463 12.4814C79.0159 12.1845 79.6101 12.205 80.0593 12.5349C80.5077 12.8644 80.6982 13.4197 80.5448 13.9494C79.8764 16.2701 78.1529 20.3504 74.1059 21.7152C74.2805 22.0792 74.4484 22.4551 74.6051 22.834C76.5028 27.4132 81.2653 30.2032 86.1866 29.6208C86.327 29.6039 86.4687 29.5858 86.6112 29.5661C87.1875 29.4867 87.7259 29.7664 87.9859 30.2781C88.2468 30.7918 88.1509 31.3874 87.7417 31.7958L87.595 31.9427C85.757 33.7858 83.4797 36.0686 76.6932 37.5827C76.1936 45.8071 73.52 51.9366 73.4041 52.1986C73.2971 52.4408 73.0554 52.5934 72.7933 52.5934L72.7928 52.5943ZM27.0986 35.2332C27.2553 35.2332 27.409 35.2879 27.5299 35.3891C27.6757 35.5109 27.7624 35.6886 27.7666 35.8774C27.8891 41.5972 29.2155 46.5355 30.1343 49.3045C30.6285 46.2928 31.2723 42.8772 31.779 40.2785C32.4824 36.6753 34.0426 33.3095 36.2907 30.5438C36.5366 30.2394 36.8024 29.9321 37.0791 29.631C37.2179 29.4805 37.42 29.4024 37.6246 29.4176C37.83 29.4336 38.0167 29.5422 38.1296 29.7125C39.4635 31.7177 41.8979 34.1107 45.922 34.1243C47.5855 34.135 49.359 33.9351 51.0712 33.7463C55.3837 33.2708 59.8279 32.7805 63.4628 35.2863C63.3399 34.3674 62.9832 33.1018 62.0156 31.9287C61.8447 31.7214 61.8177 31.4322 61.9472 31.1978C62.0768 30.9629 62.3377 30.8292 62.6069 30.8592C62.8498 30.886 68.5808 31.6074 71.1814 39.2284C71.1906 39.2547 71.1977 39.2819 71.2031 39.3094C71.2794 39.6282 71.3502 39.954 71.414 40.2777C71.9207 42.8768 72.5641 46.2916 73.0587 49.3029C73.9167 46.7165 75.1297 42.2405 75.3872 37.0163C75.4018 36.7181 75.6181 36.4672 75.914 36.4047C82.6983 34.9753 84.8856 32.7826 86.6433 31.0205L86.7912 30.872H86.7916C86.7958 30.8675 86.7975 30.865 86.7975 30.865C86.6437 30.8917 86.4933 30.9111 86.3437 30.9288C80.8286 31.5819 75.4931 28.4588 73.3691 23.3333C73.21 22.9491 73.0391 22.5687 72.8616 22.2026C72.7062 21.8818 72.6974 21.5103 72.8387 21.1838C72.9799 20.8572 73.2575 20.6058 73.6 20.4944C77.1245 19.3493 78.6592 15.6766 79.2601 13.5891C74.3088 16.7119 67.9386 15.0719 64.5821 13.817C64.1154 13.6426 63.662 13.4591 63.2345 13.272C62.8536 13.105 62.5986 12.7615 62.5523 12.3531C62.5056 11.9418 62.679 11.5486 63.0161 11.3005C66.4489 8.77502 66.5856 5.25453 66.3614 3.38096C61.2447 8.31229 53.9553 10.5092 51.843 11.0648C51.4575 11.1664 51.0537 11.0653 50.7633 10.7946C50.4741 10.5252 50.3495 10.1348 50.4299 9.75109C51.618 4.07198 48.0176 1.59295 47.2596 1.33999C47.208 1.32271 47.1696 1.31695 47.1455 1.31572C47.14 1.33999 47.1355 1.38071 47.1396 1.43829C47.2476 2.89396 47.208 5.14224 45.6232 7.84873C43.6518 11.217 38.1155 14.1156 37.3871 14.4862C37.0083 14.7178 36.5653 14.7885 36.1328 14.6869C35.6856 14.5816 35.2964 14.2941 35.0652 13.8984C32.8191 10.053 28.4296 10.9246 26.0131 11.7863C32.7762 15.1464 30.1072 22.5942 29.7809 23.432L29.7601 23.4863C29.7038 23.6241 29.6501 23.7607 29.5976 23.8981C28.112 27.7739 24.47 30.1818 20.5326 30.1822C19.6592 30.1822 18.7716 30.0638 17.889 29.8166C17.8173 29.7964 17.7473 29.7762 17.6794 29.7565C20.8697 36.0423 26.7515 35.2756 27.0003 35.2398C27.0323 35.2353 27.0644 35.2328 27.0965 35.2328L27.0986 35.2332Z" fill="#000072"/>
<path d="M76.0541 37.7061H76.0525C75.6841 37.7061 75.3857 37.4112 75.3857 37.048C75.3857 36.6848 75.6845 36.3899 76.0525 36.3899C76.4204 36.3899 76.72 36.6848 76.72 37.048C76.72 37.4112 76.4221 37.7061 76.0541 37.7061Z" fill="#000072"/>
<path d="M60.2274 68.4844C60.2274 68.7625 60.2208 69.0389 60.2074 69.3137C57.5705 69.9241 54.6586 70.2153 51.5966 70.2153C48.5347 70.2153 45.6227 69.9241 42.9858 69.3137C42.9725 69.0389 42.9658 68.7625 42.9658 68.4844C42.9658 61.5677 46.8295 55.9605 51.5966 55.9605C56.3637 55.9605 60.2274 61.5677 60.2274 68.4844Z" fill="#293856"/>
<path d="M51.5973 70.3185C48.4599 70.3185 45.5546 70.0141 42.9627 69.414C42.9173 69.4037 42.8848 69.3647 42.8823 69.319C42.869 69.0434 42.8623 68.7625 42.8623 68.4852C42.8623 61.5228 46.781 55.8585 51.5973 55.8585C56.4136 55.8585 60.3323 61.5228 60.3323 68.4852C60.3323 68.7649 60.3256 69.0455 60.3123 69.3194C60.3102 69.3651 60.2773 69.4041 60.2318 69.4144C57.6399 70.0145 54.7347 70.3189 51.5973 70.3189V70.3185ZM43.0869 69.2314C45.6438 69.8163 48.5066 70.1128 51.5973 70.1128C54.688 70.1128 57.5503 69.8163 60.1077 69.2314C60.1185 68.9858 60.1239 68.7349 60.1239 68.4848C60.1239 61.6359 56.299 56.0638 51.5973 56.0638C46.8956 56.0638 43.0707 61.6359 43.0707 68.4848C43.0707 68.7333 43.0761 68.9838 43.0869 69.2314Z" fill="#000072"/>
<path d="M60.2274 68.4844C60.2274 68.7625 60.2208 69.0389 60.2074 69.3137L60.0524 69.3482C57.4572 69.9356 54.5986 70.2153 51.5966 70.2153C48.5947 70.2153 45.7361 69.9356 43.1408 69.3482L42.9858 69.3137C42.9725 69.0389 42.9658 68.7625 42.9658 68.4844C42.9658 61.5677 46.8295 55.9605 51.5966 55.9605C56.3637 55.9605 60.2274 61.5677 60.2274 68.4844Z" fill="#293856"/>
<path d="M51.5973 70.3185C48.5212 70.3185 45.6684 70.0261 43.1182 69.449L42.9631 69.4144C42.9177 69.4041 42.8844 69.3651 42.8823 69.319C42.869 69.0434 42.8623 68.7625 42.8623 68.4852C42.8623 61.5228 46.781 55.8585 51.5973 55.8585C56.4136 55.8585 60.3323 61.5228 60.3323 68.4852C60.3323 68.7649 60.3256 69.0455 60.3123 69.3194C60.3102 69.3655 60.2768 69.4045 60.2314 69.4144L60.0764 69.449C57.5266 70.0261 54.6738 70.3185 51.5977 70.3185H51.5973ZM43.0869 69.231L43.1648 69.2482C45.7001 69.822 48.537 70.1128 51.5977 70.1128C54.6584 70.1128 57.4953 69.822 60.0301 69.2482L60.1081 69.231C60.1189 68.9854 60.1243 68.7345 60.1243 68.4848C60.1243 61.6359 56.2994 56.0638 51.5977 56.0638C46.896 56.0638 43.0711 61.6359 43.0711 68.4848C43.0711 68.7333 43.0765 68.9838 43.0873 69.231H43.0869Z" fill="#000072"/>
<path d="M60.2279 68.4844C60.2279 68.7625 60.2212 69.0389 60.2079 69.3136L60.0529 69.3482C57.4577 69.9355 54.5991 70.2152 51.5971 70.2152C48.5952 70.2152 45.7366 69.9355 43.1413 69.3482L42.9863 69.3136C42.973 69.0389 42.9663 68.7625 42.9663 68.4844C42.9663 64.2939 44.3848 60.5854 46.5633 58.3116C47.9801 56.8325 49.7186 55.9605 51.5971 55.9605C53.4756 55.9605 55.2141 56.8325 56.6309 58.3116C58.8094 60.5854 60.2279 64.2939 60.2279 68.4844Z" fill="#000072"/>
<path d="M56.6306 58.3116C55.2138 58.7838 53.4753 59.0635 51.5968 59.0635C49.7183 59.0635 47.9798 58.7838 46.563 58.3116C47.9798 56.8325 49.7183 55.9605 51.5968 55.9605C53.4753 55.9605 55.2138 56.8325 56.6306 58.3116Z" fill="white"/>
<path d="M60.0532 69.3482C57.4579 69.9355 54.5993 70.2152 51.5974 70.2152C48.5954 70.2152 45.7368 69.9355 43.1416 69.3482C44.8101 65.077 47.9704 62.1945 51.5974 62.1945C55.2244 62.1945 58.3847 65.077 60.0532 69.3482Z" fill="#FF4AA1"/>
<path d="M51.5976 70.3082C48.5223 70.3082 45.67 70.0158 43.121 69.4387C43.0943 69.4325 43.0718 69.4156 43.0589 69.3918C43.046 69.3679 43.0443 69.34 43.0543 69.3149C44.7924 64.8656 48.066 62.1015 51.5976 62.1015C55.1292 62.1015 58.4032 64.8656 60.1409 69.3149C60.1509 69.34 60.1492 69.3679 60.1363 69.3918C60.1234 69.4156 60.1009 69.4325 60.0742 69.4387C57.5248 70.0158 54.6729 70.3082 51.5976 70.3082ZM43.2689 69.2815C45.7775 69.8397 48.579 70.1223 51.5976 70.1223C54.6162 70.1223 57.4177 69.8393 59.9263 69.2815C58.2074 64.9643 55.0233 62.2874 51.5976 62.2874C48.1719 62.2874 44.9878 64.9643 43.2689 69.2815Z" fill="#390075"/>
<path d="M60.2279 68.4844C60.2279 68.7625 60.2212 69.0389 60.2079 69.3136L60.0529 69.3482C57.4577 69.9355 54.5991 70.2152 51.5971 70.2152C48.5952 70.2152 45.7366 69.9355 43.1413 69.3482L42.9863 69.3136C42.973 69.0389 42.9663 68.7625 42.9663 68.4844C42.9663 67.7983 43.0046 67.1238 43.078 66.4673L43.1413 66.4805C45.7366 67.0678 48.5952 67.3475 51.5971 67.3475C54.5991 67.3475 57.4577 67.0678 60.0529 66.4805L60.1162 66.4673C60.1896 67.1238 60.2279 67.7983 60.2279 68.4844Z" fill="white"/>
<path d="M51.5975 70.7298C48.4901 70.7298 45.6061 70.4337 43.0254 69.8496L42.4854 69.7287L42.4666 69.3383C42.4529 69.0562 42.4458 68.7691 42.4458 68.4848C42.4458 67.7909 42.4846 67.0933 42.5608 66.4109L42.6237 65.8466L43.2496 65.9774C45.7624 66.5459 48.568 66.8334 51.5975 66.8334C54.6269 66.8334 57.4326 66.5459 59.937 65.9795L60.5712 65.8466L60.6342 66.4109C60.7104 67.0933 60.7492 67.7909 60.7492 68.4848C60.7492 68.7711 60.7421 69.0586 60.7283 69.3387L60.7092 69.7291L60.1683 69.85C57.5889 70.4337 54.7044 70.7298 51.5971 70.7298H51.5975ZM43.4926 68.8994C45.9378 69.4317 48.6626 69.7015 51.5975 69.7015C54.5323 69.7015 57.2576 69.4317 59.7024 68.8994C59.7057 68.7616 59.7074 68.623 59.7074 68.4848C59.7074 68.0209 59.6891 67.5552 59.6528 67.0942C57.2109 67.6034 54.5015 67.8621 51.5975 67.8621C48.6935 67.8621 45.989 67.6042 43.5417 67.0942C43.5055 67.5552 43.4871 68.0209 43.4871 68.4848C43.4871 68.6226 43.4888 68.7612 43.4921 68.8994H43.4926Z" fill="#000072"/>
<path d="M51.5973 70.8738C48.4165 70.8738 45.4684 70.5645 42.8339 69.9545C42.5439 69.8874 42.3347 69.6386 42.3202 69.3453C42.3064 69.0607 42.2993 68.7711 42.2993 68.4848C42.2993 61.2164 46.4701 55.3028 51.5968 55.3028C56.7236 55.3028 60.8944 61.2164 60.8944 68.4848C60.8944 68.7736 60.8873 69.0632 60.8735 69.3457C60.8594 69.639 60.6498 69.8874 60.3597 69.9545C57.7257 70.5645 54.7776 70.8738 51.5968 70.8738H51.5973ZM43.6357 68.7835C46.043 69.2972 48.7187 69.5572 51.5973 69.5572C54.4759 69.5572 57.1511 69.2972 59.5584 68.7835C59.5601 68.6839 59.5609 68.5844 59.5609 68.4844C59.5609 61.9415 55.9885 56.6186 51.5968 56.6186C47.2052 56.6186 43.6328 61.9415 43.6328 68.4844C43.6328 68.584 43.6336 68.6835 43.6353 68.7835H43.6357Z" fill="#000072"/>
<path d="M38.2735 39.0927C38.5522 39.1293 38.8823 39.1552 39.1894 39.1667C39.5019 39.1786 39.8144 39.1786 40.1236 39.1646C40.742 39.1379 41.3508 39.0573 41.9142 38.9034C42.4776 38.7525 42.9918 38.5201 43.3919 38.2116C43.5902 38.0557 43.7611 37.883 43.904 37.695C44.0407 37.5025 44.149 37.2939 44.2361 37.0731L44.2407 37.0611C44.4461 36.5416 45.0395 36.2846 45.5662 36.4873C46.0925 36.6901 46.353 37.2758 46.1475 37.7958C46.1371 37.8221 46.1246 37.8492 46.1125 37.8743C45.9254 38.2499 45.6917 38.6069 45.4116 38.9244C45.1258 39.237 44.8003 39.5056 44.4561 39.7253C43.7619 40.1617 43.011 40.4015 42.2813 40.5302C41.5488 40.6606 40.827 40.6869 40.1195 40.6557C39.7657 40.64 39.4148 40.6088 39.0665 40.5644C38.7131 40.5183 38.3835 40.4656 38.0101 40.3817C37.6509 40.3011 37.4263 39.9486 37.508 39.5941C37.5847 39.2601 37.9059 39.0441 38.243 39.0873L38.2739 39.0914L38.2735 39.0927Z" fill="#000072"/>
<path d="M65.185 40.383C64.8116 40.4669 64.4824 40.5195 64.129 40.5656C63.7807 40.61 63.4298 40.6409 63.076 40.6569C62.3684 40.6882 61.6467 40.6618 60.9141 40.5315C60.1845 40.4027 59.4336 40.1625 58.7394 39.7265C58.3947 39.5064 58.0693 39.2383 57.7839 38.9257C57.5034 38.6081 57.2701 38.2511 57.083 37.8756C56.8333 37.375 57.0421 36.7695 57.5497 36.5231C58.0568 36.2768 58.6702 36.4828 58.9198 36.9834C58.9323 37.0089 58.944 37.0344 58.9544 37.0599L58.9598 37.0735C59.0473 37.2944 59.1552 37.5029 59.2919 37.6954C59.4348 37.8834 59.6053 38.0561 59.804 38.212C60.2041 38.5205 60.7179 38.7529 61.2817 38.9039C61.8446 39.0581 62.4539 39.1383 63.0723 39.165C63.3815 39.1786 63.694 39.179 64.0065 39.1671C64.3136 39.1556 64.6437 39.1297 64.9224 39.0931L64.9504 39.0894C65.3154 39.0412 65.6504 39.2946 65.6992 39.6549C65.745 39.9943 65.5175 40.3081 65.1862 40.3834L65.185 40.383Z" fill="#000072"/>
<path d="M32.6182 66.6133L28.1465 74.3096L35.3942 78.7971" fill="#FFCFAE"/>
<g opacity="0.3">
<path d="M32.6182 66.6133L28.1465 74.3096L35.3942 78.7971" fill="#000072"/>
</g>
<path d="M35.3936 79.4552C35.2723 79.4552 35.1502 79.4227 35.0398 79.3544L27.7921 74.8669C27.4887 74.6789 27.3899 74.2886 27.5679 73.9821L32.0395 66.2859C32.2229 65.9704 32.6304 65.8614 32.9496 66.0424C33.2692 66.223 33.3797 66.6252 33.1963 66.9407L29.0434 74.0882L35.7482 78.2397C36.0603 78.433 36.1545 78.839 35.9586 79.1471C35.832 79.3462 35.6153 79.4556 35.3932 79.4556L35.3936 79.4552Z" fill="#000072"/>
<path d="M37.7161 74.1191L33.9158 78.5959L32.7957 69.6933L32.679 69.5732L27.8786 64.5962C27.4519 64.1536 27.2068 63.5679 27.1918 62.9559L26.8685 49.0812C26.8551 48.5382 27.2785 48.0809 27.8286 48.043C27.9086 48.0381 27.9902 48.0348 28.0702 48.0348C29.6704 48.0348 31.0905 49.0878 31.5222 50.6294L33.5891 58.0151C33.6991 58.4083 33.9375 58.7538 34.2675 58.9973C35.0509 59.5732 36.5694 60.7643 37.5095 61.9967C38.9679 63.9085 39.6047 65.7315 39.7963 67.3274C39.828 67.5873 39.848 67.8407 39.858 68.0875C39.9447 70.2856 39.1496 72.4311 37.7161 74.1191Z" fill="#FFCFAE"/>
<g opacity="0.3">
<path d="M37.7163 74.1191L33.916 78.5959L32.7959 69.6933L32.6792 69.5732C34.5077 70.4189 38.5681 71.717 39.7965 67.3274C39.8282 67.5873 39.8482 67.8407 39.8582 68.0875C39.9449 70.2856 39.1498 72.4311 37.7163 74.1191Z" fill="#000072"/>
</g>
<path d="M33.9161 79.254C33.7648 79.254 33.6131 79.2034 33.4881 79.1002C33.206 78.867 33.1689 78.4515 33.4052 78.1731L37.2056 73.6954C38.5649 72.0938 39.2703 70.1112 39.192 68.1118C39.1149 66.1428 38.3694 64.2182 36.9764 62.3915C36.093 61.2332 34.6507 60.098 33.8698 59.5246C33.4235 59.1968 33.0956 58.7229 32.9464 58.1903L30.8796 50.8046C30.5124 49.4933 29.2502 48.6065 27.873 48.6999C27.6788 48.7126 27.5305 48.8735 27.5347 49.0651L27.8584 62.9398C27.8689 63.3894 28.0476 63.8163 28.3622 64.1421L33.2781 69.238C33.5319 69.5012 33.5219 69.9179 33.2552 70.1684C32.9885 70.4189 32.5664 70.4086 32.3126 70.1457L27.3967 65.0499C26.8529 64.4864 26.5437 63.7476 26.5254 62.9698L26.2016 49.0956C26.1808 48.1977 26.875 47.447 27.783 47.3865C29.7882 47.2524 31.63 48.5428 32.1647 50.4542L34.2315 57.8403C34.302 58.0916 34.4561 58.3149 34.6657 58.4688C35.5042 59.0845 37.0581 60.3102 38.0415 61.6001C39.6008 63.6452 40.4363 65.8191 40.5242 68.0612C40.6155 70.3876 39.7996 72.6885 38.2277 74.5407L34.4274 79.0183C34.2953 79.1738 34.1061 79.254 33.9161 79.254Z" fill="#000072"/>
<path d="M29.5854 59.806C29.3512 58.8406 29.1816 57.8703 29.0274 56.8988C28.872 55.9272 28.7553 54.9524 28.6361 53.978C28.4032 52.0283 28.204 50.0762 28.0844 48.1175C28.0673 47.8341 28.2861 47.5901 28.5732 47.5733C28.8524 47.5568 29.0933 47.7613 29.1229 48.0327C29.3308 49.9844 29.4587 51.9423 29.5529 53.9031C29.5975 54.8837 29.6442 55.8643 29.6525 56.8477C29.6617 57.8312 29.6562 58.8159 29.5854 59.806Z" fill="#000072"/>
<path d="M29.1105 68.758L38.0851 76.1367C38.0851 76.1367 23.8805 99.7592 8.46114 102.134C1.29881 103.237 -1.46019 94.3372 2.43433 90.0048C10.1259 81.4485 20.2856 81.2021 29.1105 68.7576V68.758Z" fill="#009EFF"/>
<g opacity="0.5">
<path d="M37.8779 75.7249C37.8779 75.7249 37.6029 76.1807 37.0895 76.9737L29.7172 70.9125C20.893 83.3557 10.7337 83.6025 3.04135 92.1597C1.56455 93.8033 1.0445 96.105 1.35953 98.267C-0.0372634 95.5638 0.136086 91.9194 2.22628 89.593C9.91866 81.0375 20.0779 80.7907 28.9021 68.3458L37.8779 75.7249Z" fill="white"/>
</g>
<g opacity="0.3">
<path d="M38.086 76.1362C38.086 76.1362 23.8813 99.7592 8.46158 102.135C1.29925 103.237 -1.45934 94.338 2.43436 90.0043C2.8594 89.5321 3.2911 89.0862 3.72948 88.6618C4.19452 92.2534 6.95644 95.5094 11.4569 94.8151C21.7161 93.2356 31.4354 82.2517 36.7942 75.075L38.086 76.1362Z" fill="#000072"/>
</g>
<path d="M7.30244 102.883C4.6647 102.883 2.39657 101.556 1.08437 99.1846C-0.636208 96.075 -0.277842 92.0309 1.93611 89.5679C5.30393 85.8216 9.06636 83.6733 13.0501 81.3995C18.2401 78.4363 23.6065 75.3728 28.5648 68.3804C28.6719 68.2294 28.8378 68.1299 29.0228 68.1056C29.2078 68.0813 29.3945 68.1344 29.5378 68.252L38.5124 75.6307C38.7641 75.8376 38.8262 76.1942 38.6591 76.4723C38.6233 76.5319 35.0138 82.501 29.5587 88.677C22.1822 97.028 15.1186 101.775 8.56464 102.784C8.13669 102.85 7.71498 102.882 7.30286 102.882L7.30244 102.883ZM29.2366 69.718C24.2298 76.5373 18.8881 79.5872 13.7176 82.5389C9.83018 84.7584 6.15817 86.8549 2.93371 90.4416C1.0802 92.5035 0.794757 95.915 2.25489 98.5536C3.50918 100.82 5.73438 101.889 8.35879 101.484C22.0892 99.3689 35.1038 79.6185 37.2152 76.2777L29.2366 69.718Z" fill="#000072"/>
<path d="M70.4216 66.6133L74.8933 74.3095L67.6455 78.797" fill="#FFCFAE"/>
<g opacity="0.3">
<path d="M70.4216 66.6133L74.8933 74.3095L67.6455 78.797" fill="#000072"/>
</g>
<path d="M67.6463 79.4551C67.4247 79.4551 67.2076 79.3457 67.0809 79.1467C66.8854 78.8386 66.9796 78.4326 67.2913 78.2393L73.9961 74.0878L69.8432 66.9403C69.6599 66.6248 69.7703 66.2229 70.0899 66.042C70.4091 65.861 70.8166 65.97 71 66.2855L75.4717 73.9817C75.6496 74.2881 75.5508 74.6789 75.2475 74.8664L67.9997 79.354C67.8897 79.4222 67.7672 79.4547 67.6459 79.4547L67.6463 79.4551Z" fill="#000072"/>
<path d="M65.3241 74.1191L69.1244 78.5959L70.2445 69.6933L70.3612 69.5732L75.1616 64.5962C75.5883 64.1536 75.8334 63.5679 75.8484 62.9558L76.1717 49.0812C76.1851 48.5382 75.7617 48.0808 75.2116 48.043C75.1316 48.038 75.05 48.0348 74.97 48.0348C73.3698 48.0348 71.9497 49.0877 71.518 50.6294L69.4511 58.015C69.3411 58.4083 69.1028 58.7538 68.7727 58.9973C67.9893 59.5731 66.4708 60.7643 65.5308 61.9966C64.0723 63.9085 63.4356 65.7314 63.2439 67.3274C63.2122 67.5873 63.1922 67.8407 63.1822 68.0875C63.0955 70.2856 63.8906 72.431 65.3241 74.1191Z" fill="#FFCFAE"/>
<g opacity="0.3">
<path d="M65.3241 74.1191L69.1244 78.5959L70.2445 69.6933L70.3612 69.5732C68.5327 70.4189 64.4723 71.717 63.2439 67.3274C63.2122 67.5873 63.1922 67.8407 63.1822 68.0875C63.0955 70.2856 63.8906 72.4311 65.3241 74.1191Z" fill="#000072"/>
</g>
<path d="M69.1242 79.254C68.9338 79.254 68.7446 79.1738 68.6129 79.0183L64.8122 74.5407C63.2399 72.6885 62.4244 70.3872 62.5157 68.0612C62.6036 65.8195 63.4391 63.6456 64.9984 61.6001C65.9818 60.3111 67.5353 59.0849 68.3742 58.4687C68.5838 58.3149 68.7379 58.0916 68.8084 57.8402L70.8752 50.4542C71.4099 48.5428 73.2529 47.2537 75.2569 47.3865C76.1645 47.447 76.8591 48.1977 76.8383 49.0956L76.5145 62.9698C76.4962 63.748 76.187 64.4864 75.6432 65.0499L70.7273 70.1457C70.4735 70.409 70.0514 70.4193 69.7847 70.1684C69.518 69.9179 69.5076 69.5012 69.7618 69.238L74.6777 64.1421C74.9919 63.8163 75.171 63.3894 75.1815 62.9394L75.5052 49.0651C75.5098 48.873 75.3611 48.7126 75.1669 48.6999C73.7938 48.6077 72.5275 49.4929 72.1603 50.8046L70.0935 58.1903C69.9447 58.7225 69.6168 59.1968 69.1701 59.5246C68.3887 60.0984 66.9465 61.2336 66.0635 62.3915C64.6705 64.2182 63.925 66.1428 63.8479 68.1118C63.7696 70.1108 64.475 72.0938 65.8343 73.6954L69.6347 78.1731C69.8714 78.4515 69.8343 78.867 69.5518 79.1002C69.4268 79.2034 69.2751 79.254 69.1238 79.254H69.1242Z" fill="#000072"/>
<path d="M73.4544 59.806C73.3836 58.8159 73.3778 57.8312 73.3874 56.8477C73.3957 55.8643 73.4428 54.8837 73.4869 53.9031C73.5811 51.9423 73.709 49.984 73.917 48.0327C73.947 47.7502 74.2037 47.5453 74.4895 47.5749C74.7675 47.6037 74.9712 47.8448 74.955 48.1175C74.8358 50.0762 74.6362 52.0287 74.4033 53.978C74.2841 54.9524 74.1674 55.9272 74.012 56.8988C73.8578 57.8703 73.6882 58.8406 73.454 59.806H73.4544Z" fill="#000072"/>
<path d="M73.9292 68.7579L64.9546 76.1366C64.9546 76.1366 79.1592 99.7592 94.5786 102.134C101.741 103.237 104.5 94.3371 100.605 90.0047C92.9138 81.4484 82.7542 81.202 73.9292 68.7575V68.7579Z" fill="#009EFF"/>
<g opacity="0.5">
<path d="M65.1621 75.7249C65.1621 75.7249 65.4371 76.1807 65.9505 76.9737L73.3229 70.9125C82.147 83.3557 92.3063 83.6025 99.9987 92.1597C101.475 93.8033 101.996 96.105 101.68 98.267C103.077 95.5638 102.904 91.9194 100.814 89.593C93.1214 81.0375 82.9621 80.7907 74.1379 68.3458L65.1621 75.7249Z" fill="white"/>
</g>
<g opacity="0.3">
<path d="M64.9536 76.1362C64.9536 76.1362 79.1583 99.7592 94.578 102.135C101.74 103.237 104.499 94.338 100.605 90.0043C100.18 89.5321 99.7485 89.0862 99.3101 88.6618C98.8451 92.2534 96.0832 95.5094 91.5827 94.8151C81.3235 93.2356 71.6042 82.2517 66.2454 75.075L64.9536 76.1362Z" fill="#000072"/>
</g>
<path d="M95.7377 102.883C95.3256 102.883 94.9043 102.85 94.4759 102.784C87.922 101.775 80.8584 97.0284 73.4819 88.6774C68.0268 82.501 64.4173 76.5323 64.3815 76.4727C64.2144 76.1946 64.2765 75.838 64.5282 75.6311L73.5027 68.2524C73.6461 68.1348 73.8328 68.0813 74.0178 68.106C74.2028 68.1303 74.3686 68.2302 74.4757 68.3808C79.4341 75.3732 84.8005 78.4367 89.9905 81.3999C93.9742 83.6741 97.7366 85.822 101.104 89.5683C103.318 92.0313 103.676 96.0754 101.956 99.185C100.644 101.556 98.3755 102.883 95.7381 102.883L95.7377 102.883ZM65.8249 76.2777C67.9364 79.6189 80.9509 99.3693 94.6814 101.484C97.3058 101.888 99.531 100.82 100.785 98.5536C102.245 95.915 101.96 92.5035 100.106 90.4415C96.882 86.8544 93.21 84.7583 89.3225 82.5388C84.1521 79.5868 78.8103 76.5373 73.8036 69.718L65.8249 76.2777Z" fill="#000072"/>
<path d="M36.883 44.2083C36.883 45.346 35.9488 46.2686 34.7958 46.2686C33.6427 46.2686 32.7085 45.346 32.7085 44.2083C32.7085 43.0706 34.7958 39.0561 34.7958 39.0561C34.7958 39.0561 36.883 43.0706 36.883 44.2083Z" fill="#9FE2FF"/>
<path d="M34.7959 46.3714C33.5875 46.3714 32.6045 45.4011 32.6045 44.2083C32.6045 43.0154 34.6176 39.1741 34.703 39.0092C34.7384 38.9409 34.8526 38.9409 34.8885 39.0092C34.9743 39.1741 36.987 43.0586 36.987 44.2083C36.987 45.3579 36.004 46.3714 34.7955 46.3714H34.7959ZM34.7959 39.2839C34.3926 40.0765 32.8128 43.2437 32.8128 44.2083C32.8128 45.2876 33.7025 46.1657 34.7959 46.1657C35.8894 46.1657 36.779 45.2876 36.779 44.2083C36.779 43.2437 35.1993 40.0765 34.7959 39.2839Z" fill="#000072"/>
<path d="M34.796 46.9267C33.2775 46.9267 32.042 45.7071 32.042 44.2083C32.042 42.9739 33.8422 39.4497 34.2026 38.7558C34.3168 38.5362 34.546 38.3979 34.796 38.3979C35.046 38.3979 35.2748 38.5362 35.3894 38.7558C35.7503 39.4497 37.55 42.9739 37.55 44.2083C37.55 45.7071 36.3145 46.9267 34.796 46.9267ZM34.796 40.5434C34.0868 42.0159 33.3754 43.6838 33.3754 44.2083C33.3754 44.9816 34.0126 45.6105 34.796 45.6105C35.5794 45.6105 36.2165 44.9816 36.2165 44.2083C36.2165 43.6834 35.5056 42.0155 34.796 40.5434Z" fill="#000072"/>
<path d="M70.3762 46.0493C70.3762 47.187 69.442 48.1096 68.2889 48.1096C67.1359 48.1096 66.2017 47.187 66.2017 46.0493C66.2017 44.9116 68.2889 40.8971 68.2889 40.8971C68.2889 40.8971 70.3762 44.9116 70.3762 46.0493Z" fill="#9FE2FF"/>
<path d="M68.2891 48.2121C67.0807 48.2121 66.0977 47.2418 66.0977 46.0489C66.0977 44.8561 68.1108 41.0148 68.1962 40.8498C68.2316 40.7815 68.3458 40.7815 68.3816 40.8498C68.4675 41.0148 70.4801 44.8993 70.4801 46.0489C70.4801 47.1986 69.4971 48.2121 68.2887 48.2121H68.2891ZM68.2891 41.1246C67.8857 41.9172 66.306 45.0844 66.306 46.0489C66.306 47.1282 67.1957 48.0064 68.2891 48.0064C69.3825 48.0064 70.2722 47.1282 70.2722 46.0489C70.2722 45.0844 68.6925 41.9172 68.2891 41.1246Z" fill="#000072"/>
<path d="M68.2892 48.7673C66.7707 48.7673 65.5352 47.5478 65.5352 46.0489C65.5352 44.8145 67.3353 41.2903 67.6958 40.5964C67.8099 40.3768 68.0391 40.2386 68.2892 40.2386C68.5392 40.2386 68.768 40.3768 68.8826 40.5964C69.2434 41.2903 71.0432 44.8145 71.0432 46.0489C71.0432 47.5478 69.8076 48.7673 68.2892 48.7673ZM68.2892 42.384C67.5799 43.8566 66.8686 45.5245 66.8686 46.0489C66.8686 46.8222 67.5058 47.4511 68.2892 47.4511C69.0726 47.4511 69.7097 46.8222 69.7097 46.0489C69.7097 45.5241 68.9988 43.8562 68.2892 42.384Z" fill="#000072"/>
<path d="M40.2283 56.2735C40.2283 57.4113 39.2936 58.3338 38.141 58.3338C36.9884 58.3338 36.0537 57.4117 36.0537 56.2735C36.0537 55.1354 38.141 51.1213 38.141 51.1213C38.141 51.1213 40.2283 55.1358 40.2283 56.2735Z" fill="#9FE2FF"/>
<path d="M38.1412 58.4367C36.9327 58.4367 35.9497 57.4664 35.9497 56.2735C35.9497 55.0807 37.9628 51.2394 38.0482 51.0744C38.0837 51.0057 38.1978 51.0057 38.2337 51.0744C38.3195 51.2394 40.3322 55.1243 40.3322 56.2735C40.3322 57.4228 39.3492 58.4367 38.1407 58.4367H38.1412ZM38.1412 51.3492C37.7378 52.1418 36.1581 55.309 36.1581 56.2735C36.1581 57.3528 37.0477 58.231 38.1412 58.231C39.2346 58.231 40.1243 57.3528 40.1243 56.2735C40.1243 55.309 38.5445 52.1418 38.1412 51.3492Z" fill="#000072"/>
<path d="M38.1412 58.992C36.6227 58.992 35.3872 57.7724 35.3872 56.2735C35.3872 55.0396 37.1874 51.515 37.5478 50.8211C37.662 50.6014 37.8908 50.4632 38.1412 50.4632C38.3917 50.4632 38.6204 50.6014 38.7346 50.8211C39.0955 51.515 40.8952 55.0396 40.8952 56.2735C40.8952 57.7724 39.6597 58.992 38.1412 58.992ZM38.1412 52.6091C37.432 54.0816 36.7207 55.7495 36.7207 56.2735C36.7207 57.0464 37.3578 57.6757 38.1412 57.6757C38.9246 57.6757 39.5618 57.0468 39.5618 56.2735C39.5618 55.7495 38.8509 54.0812 38.1412 52.6091Z" fill="#000072"/>
<path d="M74.9278 115.544H28.2664C27.0678 115.544 26.0962 116.504 26.0962 117.687C26.0962 118.87 27.0678 119.829 28.2664 119.829H74.9278C76.1264 119.829 77.098 118.87 77.098 117.687C77.098 116.504 76.1264 115.544 74.9278 115.544Z" fill="#ADB9C4"/>
<g opacity="0.3">
<path d="M77.0985 117.687C77.0985 118.28 76.8551 118.814 76.463 119.202C76.0709 119.589 75.5267 119.83 74.9283 119.83H28.2669C27.0684 119.83 26.0967 118.87 26.0967 117.687C26.0967 117.297 26.2029 116.932 26.3875 116.616C26.7626 117.257 27.4643 117.687 28.2669 117.687H74.9287C75.5271 117.687 76.0713 117.447 76.4634 117.06C76.5968 116.929 76.7118 116.78 76.808 116.616C76.9922 116.932 77.0989 117.297 77.0989 117.687H77.0985Z" fill="#000072"/>
</g>
<path d="M74.9275 120.496H28.2665C26.6972 120.496 25.4204 119.236 25.4204 117.687C25.4204 116.137 26.6972 114.877 28.2665 114.877H74.9275C76.4968 114.877 77.774 116.137 77.774 117.687C77.774 119.236 76.4972 120.496 74.9275 120.496ZM28.2665 116.212C27.4427 116.212 26.7722 116.873 26.7722 117.687C26.7722 118.5 27.4427 119.161 28.2665 119.161H74.9275C75.7513 119.161 76.4218 118.5 76.4218 117.687C76.4218 116.873 75.7513 116.212 74.9275 116.212H28.2665Z" fill="#000072"/>
<path d="M76.0423 115.544H27.1511C26.5498 115.544 26.0443 115.099 25.9756 114.51L22.9311 88.2998C22.8161 87.3098 23.6008 86.4415 24.6105 86.4415H78.5829C79.5926 86.4415 80.3773 87.3098 80.2623 88.2998L77.2178 114.51C77.1495 115.099 76.6436 115.544 76.0423 115.544Z" fill="#ADB9C4"/>
<g opacity="0.5">
<path d="M53.2869 102.122C53.2869 100.772 54.0315 99.5963 55.1354 98.9649C54.5911 98.6536 53.9611 98.4726 53.2869 98.4726C51.245 98.4726 49.5898 100.106 49.5898 102.122C49.5898 104.137 51.245 105.771 53.2869 105.771C53.9611 105.771 54.5911 105.59 55.1354 105.279C54.0315 104.647 53.2869 103.471 53.2869 102.121V102.122Z" fill="white"/>
</g>
<g opacity="0.3">
<path d="M80.2623 88.2985L77.2183 114.51C77.1491 115.099 76.6437 115.544 76.0436 115.544H27.1512C26.5511 115.544 26.044 115.099 25.9765 114.51L25.6689 111.862H74.2759C74.8777 111.862 75.3831 111.416 75.4506 110.827L78.2851 86.4418H78.5843C79.5931 86.4418 80.3773 87.3093 80.2628 88.2985H80.2623Z" fill="#000072"/>
</g>
<g opacity="0.5">
<path d="M80.2625 88.09L80.0866 89.5967C79.8095 89.0628 79.2449 88.691 78.584 88.691H24.6111C23.9502 88.691 23.3856 89.0632 23.1085 89.5967L22.9326 88.09C22.8176 87.1008 23.6018 86.2333 24.6111 86.2333H78.5844C79.5933 86.2333 80.3775 87.1008 80.2629 88.09H80.2625Z" fill="white"/>
</g>
<path d="M76.0424 116.212H27.1512C26.2057 116.212 25.4118 115.512 25.3039 114.585L22.2595 88.3755C22.1828 87.7149 22.3962 87.051 22.8445 86.555C23.2929 86.0585 23.9367 85.7739 24.6105 85.7739H78.5826C79.2564 85.7739 79.9002 86.0585 80.3486 86.555C80.797 87.0514 81.0103 87.7149 80.9337 88.3759L77.8892 114.586C77.7817 115.513 76.9875 116.212 76.0424 116.212V116.212ZM24.6105 87.1086C24.3176 87.1086 24.0488 87.2275 23.8538 87.443C23.6588 87.6589 23.5696 87.9362 23.6029 88.2233L26.6474 114.433C26.677 114.686 26.8932 114.876 27.1512 114.876H76.0424C76.3003 114.876 76.5166 114.686 76.5462 114.433L79.5906 88.2233C79.624 87.9358 79.5348 87.6585 79.3398 87.443C79.1447 87.2275 78.876 87.1086 78.583 87.1086H24.6109H24.6105Z" fill="#000072"/>
<path d="M52.4416 101.705C52.4416 100.355 53.1863 99.1792 54.2901 98.5478C53.7459 98.2365 53.1159 98.0555 52.4416 98.0555C50.3998 98.0555 48.7446 99.6892 48.7446 101.705C48.7446 103.72 50.3998 105.354 52.4416 105.354C53.1159 105.354 53.7459 105.173 54.2901 104.862C53.1863 104.23 52.4416 103.054 52.4416 101.704V101.705Z" fill="#000072"/>
</svg>
